<svg width="1901" height="894" viewBox="0 0 1901 894" fill="none" xmlns="http://www.w3.org/2000/svg">
<path d="M0 894V0H301.689C371.444 0 428.701 11.9316 473.461 35.7949C518.22 59.3672 551.353 91.8154 572.861 133.14C594.369 174.464 605.123 221.463 605.123 274.137C605.123 326.811 594.369 373.519 572.861 414.261C551.353 455.003 518.365 487.015 473.896 510.296C429.428 533.286 372.607 544.781 303.433 544.781H59.2916V447H299.946C347.611 447 385.976 440.016 415.041 426.047C444.396 412.078 465.613 392.289 478.692 366.68C492.062 340.779 498.747 309.932 498.747 274.137C498.747 238.342 492.062 207.058 478.692 180.284C465.322 153.511 443.96 132.849 414.605 118.298C385.25 103.456 346.449 96.0352 298.202 96.0352H108.12V894H0ZM420.273 492.398L640 894H514.441L298.202 492.398H420.273Z" fill="white"/>
<path d="M45.3107 894V89.4H316.831C379.61 89.4 431.142 100.138 471.425 121.615C511.709 142.83 541.529 172.034 560.886 209.226C580.243 246.418 589.921 288.717 589.921 336.123C589.921 383.53 580.243 425.567 560.886 462.235C541.529 498.903 511.839 527.713 471.818 548.666C431.796 569.358 380.657 579.703 318.401 579.703H98.6731V491.7H315.262C358.161 491.7 392.689 485.414 418.848 472.842C445.267 460.27 464.362 442.46 476.134 419.412C488.166 396.101 494.183 368.339 494.183 336.123C494.183 303.908 488.166 275.752 476.134 251.656C464.101 227.56 444.875 208.964 418.455 195.868C392.036 182.51 357.115 175.832 313.692 175.832H142.619V894H45.3107ZM423.556 532.559L621.311 894H508.308L313.692 532.559H423.556Z" fill="#548CC5"/>
<path d="M802.876 409.445C794.976 409.445 787.676 408.145 780.976 405.545C774.276 402.845 768.476 399.095 763.576 394.295C758.676 389.495 754.826 383.845 752.026 377.345C749.326 370.845 747.976 363.745 747.976 356.045C747.976 348.345 749.326 341.245 752.026 334.745C754.826 328.245 758.676 322.595 763.576 317.795C768.576 312.995 774.426 309.295 781.126 306.695C787.826 303.995 795.126 302.645 803.026 302.645C810.626 302.645 817.776 303.945 824.476 306.545C831.176 309.045 836.826 312.845 841.426 317.945L834.376 324.995C830.076 320.595 825.326 317.445 820.126 315.545C814.926 313.545 809.326 312.545 803.326 312.545C797.026 312.545 791.176 313.645 785.776 315.845C780.376 317.945 775.676 320.995 771.676 324.995C767.676 328.895 764.526 333.495 762.226 338.795C760.026 343.995 758.926 349.745 758.926 356.045C758.926 362.345 760.026 368.145 762.226 373.445C764.526 378.645 767.676 383.245 771.676 387.245C775.676 391.145 780.376 394.195 785.776 396.395C791.176 398.495 797.026 399.545 803.326 399.545C809.326 399.545 814.926 398.545 820.126 396.545C825.326 394.545 830.076 391.345 834.376 386.945L841.426 393.995C836.826 399.095 831.176 402.945 824.476 405.545C817.776 408.145 810.576 409.445 802.876 409.445ZM925.292 409.445C917.392 409.445 910.042 408.145 903.242 405.545C896.542 402.845 890.692 399.095 885.692 394.295C880.792 389.395 876.942 383.745 874.142 377.345C871.442 370.845 870.092 363.745 870.092 356.045C870.092 348.345 871.442 341.295 874.142 334.895C876.942 328.395 880.792 322.745 885.692 317.945C890.692 313.045 896.542 309.295 903.242 306.695C909.942 303.995 917.292 302.645 925.292 302.645C933.192 302.645 940.492 303.995 947.192 306.695C953.892 309.295 959.692 312.995 964.592 317.795C969.592 322.595 973.442 328.245 976.142 334.745C978.942 341.245 980.342 348.345 980.342 356.045C980.342 363.745 978.942 370.845 976.142 377.345C973.442 383.845 969.592 389.495 964.592 394.295C959.692 399.095 953.892 402.845 947.192 405.545C940.492 408.145 933.192 409.445 925.292 409.445ZM925.292 399.545C931.592 399.545 937.392 398.495 942.692 396.395C948.092 394.195 952.742 391.145 956.642 387.245C960.642 383.245 963.742 378.645 965.942 373.445C968.142 368.145 969.242 362.345 969.242 356.045C969.242 349.745 968.142 343.995 965.942 338.795C963.742 333.495 960.642 328.895 956.642 324.995C952.742 320.995 948.092 317.945 942.692 315.845C937.392 313.645 931.592 312.545 925.292 312.545C918.992 312.545 913.142 313.645 907.742 315.845C902.342 317.945 897.642 320.995 893.642 324.995C889.742 328.895 886.642 333.495 884.342 338.795C882.142 343.995 881.042 349.745 881.042 356.045C881.042 362.245 882.142 367.995 884.342 373.295C886.642 378.595 889.742 383.245 893.642 387.245C897.642 391.145 902.342 394.195 907.742 396.395C913.142 398.495 918.992 399.545 925.292 399.545ZM1042.5 408.545L1007.1 303.545H1018.5L1051.65 402.395H1045.95L1080.15 303.545H1090.35L1124.1 402.395H1118.7L1152.15 303.545H1162.8L1127.4 408.545H1115.7L1083.45 314.795H1086.45L1054.05 408.545H1042.5ZM1244.67 409.445C1236.77 409.445 1229.42 408.145 1222.62 405.545C1215.92 402.845 1210.07 399.095 1205.07 394.295C1200.17 389.395 1196.32 383.745 1193.52 377.345C1190.82 370.845 1189.47 363.745 1189.47 356.045C1189.47 348.345 1190.82 341.295 1193.52 334.895C1196.32 328.395 1200.17 322.745 1205.07 317.945C1210.07 313.045 1215.92 309.295 1222.62 306.695C1229.32 303.995 1236.67 302.645 1244.67 302.645C1252.57 302.645 1259.87 303.995 1266.57 306.695C1273.27 309.295 1279.07 312.995 1283.97 317.795C1288.97 322.595 1292.82 328.245 1295.52 334.745C1298.32 341.245 1299.72 348.345 1299.72 356.045C1299.72 363.745 1298.32 370.845 1295.52 377.345C1292.82 383.845 1288.97 389.495 1283.97 394.295C1279.07 399.095 1273.27 402.845 1266.57 405.545C1259.87 408.145 1252.57 409.445 1244.67 409.445ZM1244.67 399.545C1250.97 399.545 1256.77 398.495 1262.07 396.395C1267.47 394.195 1272.12 391.145 1276.02 387.245C1280.02 383.245 1283.12 378.645 1285.32 373.445C1287.52 368.145 1288.62 362.345 1288.62 356.045C1288.62 349.745 1287.52 343.995 1285.32 338.795C1283.12 333.495 1280.02 328.895 1276.02 324.995C1272.12 320.995 1267.47 317.945 1262.07 315.845C1256.77 313.645 1250.97 312.545 1244.67 312.545C1238.37 312.545 1232.52 313.645 1227.12 315.845C1221.72 317.945 1217.02 320.995 1213.02 324.995C1209.12 328.895 1206.02 333.495 1203.72 338.795C1201.52 343.995 1200.42 349.745 1200.42 356.045C1200.42 362.245 1201.52 367.995 1203.72 373.295C1206.02 378.595 1209.12 383.245 1213.02 387.245C1217.02 391.145 1221.72 394.195 1227.12 396.395C1232.52 398.495 1238.37 399.545 1244.67 399.545ZM1341.1 408.545V303.545H1380.4C1389.3 303.545 1396.95 304.995 1403.35 307.895C1409.75 310.695 1414.65 314.795 1418.05 320.195C1421.55 325.495 1423.3 331.945 1423.3 339.545C1423.3 346.945 1421.55 353.345 1418.05 358.745C1414.65 364.045 1409.75 368.145 1403.35 371.045C1396.95 373.845 1389.3 375.245 1380.4 375.245H1347.25L1352.2 370.145V408.545H1341.1ZM1412.8 408.545L1385.8 370.445H1397.8L1424.95 408.545H1412.8ZM1352.2 371.045L1347.25 365.795H1380.1C1390.6 365.795 1398.55 363.495 1403.95 358.895C1409.45 354.295 1412.2 347.845 1412.2 339.545C1412.2 331.145 1409.45 324.645 1403.95 320.045C1398.55 315.445 1390.6 313.145 1380.1 313.145H1347.25L1352.2 307.895V371.045ZM1475.6 382.445L1475.15 368.945L1538.75 303.545H1551.5L1505.15 352.145L1498.85 358.895L1475.6 382.445ZM1466 408.545V303.545H1477.1V408.545H1466ZM1541.45 408.545L1496.15 356.345L1503.65 348.245L1554.65 408.545H1541.45ZM1589.14 408.545V303.545H1600.24V408.545H1589.14ZM1650.9 408.545V303.545H1660.05L1732.5 394.745H1727.7V303.545H1738.65V408.545H1729.5L1657.2 317.345H1662V408.545H1650.9ZM1835.47 409.445C1827.47 409.445 1820.07 408.145 1813.27 405.545C1806.57 402.845 1800.72 399.095 1795.72 394.295C1790.82 389.495 1786.97 383.845 1784.17 377.345C1781.47 370.845 1780.12 363.745 1780.12 356.045C1780.12 348.345 1781.47 341.245 1784.17 334.745C1786.97 328.245 1790.87 322.595 1795.87 317.795C1800.87 312.995 1806.72 309.295 1813.42 306.695C1820.22 303.995 1827.62 302.645 1835.62 302.645C1843.62 302.645 1850.92 303.895 1857.52 306.395C1864.22 308.895 1869.92 312.695 1874.62 317.795L1867.72 324.845C1863.32 320.445 1858.47 317.295 1853.17 315.395C1847.87 313.495 1842.17 312.545 1836.07 312.545C1829.57 312.545 1823.57 313.645 1818.07 315.845C1812.67 317.945 1807.92 320.995 1803.82 324.995C1799.82 328.895 1796.67 333.495 1794.37 338.795C1792.17 343.995 1791.07 349.745 1791.07 356.045C1791.07 362.245 1792.17 367.995 1794.37 373.295C1796.67 378.595 1799.82 383.245 1803.82 387.245C1807.92 391.145 1812.67 394.195 1818.07 396.395C1823.57 398.495 1829.52 399.545 1835.92 399.545C1841.92 399.545 1847.57 398.645 1852.87 396.845C1858.27 395.045 1863.22 391.995 1867.72 387.695L1874.02 396.095C1869.02 400.495 1863.17 403.845 1856.47 406.145C1849.77 408.345 1842.77 409.445 1835.47 409.445ZM1863.37 394.745V356.045H1874.02V396.095L1863.37 394.745Z" fill="white"/>
<path d="M834.076 710.145C817.276 710.145 801.176 707.945 785.776 703.545C770.376 698.945 757.976 693.045 748.576 685.845L765.076 649.245C774.076 655.645 784.676 660.945 796.876 665.145C809.276 669.145 821.776 671.145 834.376 671.145C843.976 671.145 851.676 670.245 857.476 668.445C863.476 666.445 867.876 663.745 870.676 660.345C873.476 656.945 874.876 653.045 874.876 648.645C874.876 643.045 872.676 638.645 868.276 635.445C863.876 632.045 858.076 629.345 850.876 627.345C843.676 625.145 835.676 623.145 826.876 621.345C818.276 619.345 809.576 616.945 800.776 614.145C792.176 611.345 784.276 607.745 777.076 603.345C769.876 598.945 763.976 593.145 759.376 585.945C754.976 578.745 752.776 569.545 752.776 558.345C752.776 546.345 755.976 535.445 762.376 525.645C768.976 515.645 778.776 507.745 791.776 501.945C804.976 495.945 821.476 492.945 841.276 492.945C854.476 492.945 867.476 494.545 880.276 497.745C893.076 500.745 904.376 505.345 914.176 511.545L899.176 548.445C889.376 542.845 879.576 538.745 869.776 536.145C859.976 533.345 850.376 531.945 840.976 531.945C831.576 531.945 823.876 533.045 817.876 535.245C811.876 537.445 807.576 540.345 804.976 543.945C802.376 547.345 801.076 551.345 801.076 555.945C801.076 561.345 803.276 565.745 807.676 569.145C812.076 572.345 817.876 574.945 825.076 576.945C832.276 578.945 840.176 580.945 848.776 582.945C857.576 584.945 866.276 587.245 874.876 589.845C883.676 592.445 891.676 595.945 898.876 600.345C906.076 604.745 911.876 610.545 916.276 617.745C920.876 624.945 923.176 634.045 923.176 645.045C923.176 656.845 919.876 667.645 913.276 677.445C906.676 687.245 896.776 695.145 883.576 701.145C870.576 707.145 854.076 710.145 834.076 710.145ZM984.885 706.545V496.545H1075.78C1094.58 496.545 1110.78 499.645 1124.38 505.845C1137.98 511.845 1148.48 520.545 1155.88 531.945C1163.28 543.345 1166.98 556.945 1166.98 572.745C1166.98 588.345 1163.28 601.845 1155.88 613.245C1148.48 624.645 1137.98 633.445 1124.38 639.645C1110.78 645.645 1094.58 648.645 1075.78 648.645H1011.88L1033.48 626.745V706.545H984.885ZM1033.48 632.145L1011.88 609.045H1073.08C1088.08 609.045 1099.28 605.845 1106.68 599.445C1114.08 593.045 1117.78 584.145 1117.78 572.745C1117.78 561.145 1114.08 552.145 1106.68 545.745C1099.28 539.345 1088.08 536.145 1073.08 536.145H1011.88L1033.48 513.045V632.145ZM1192.03 706.545L1285.63 496.545H1333.63L1427.53 706.545H1376.53L1299.73 521.145H1318.93L1241.83 706.545H1192.03ZM1238.83 661.545L1251.73 624.645H1359.73L1372.93 661.545H1238.83ZM1575.39 710.145C1559.19 710.145 1544.09 707.545 1530.09 702.345C1516.29 696.945 1504.29 689.345 1494.09 679.545C1483.89 669.745 1475.89 658.245 1470.09 645.045C1464.49 631.845 1461.69 617.345 1461.69 601.545C1461.69 585.745 1464.49 571.245 1470.09 558.045C1475.89 544.845 1483.89 533.345 1494.09 523.545C1504.49 513.745 1516.59 506.245 1530.39 501.045C1544.19 495.645 1559.29 492.945 1575.69 492.945C1593.89 492.945 1610.29 496.145 1624.89 502.545C1639.69 508.745 1652.09 517.945 1662.09 530.145L1630.89 558.945C1623.69 550.745 1615.69 544.645 1606.89 540.645C1598.09 536.445 1588.49 534.345 1578.09 534.345C1568.29 534.345 1559.29 535.945 1551.09 539.145C1542.89 542.345 1535.79 546.945 1529.79 552.945C1523.79 558.945 1519.09 566.045 1515.69 574.245C1512.49 582.445 1510.89 591.545 1510.89 601.545C1510.89 611.545 1512.49 620.645 1515.69 628.845C1519.09 637.045 1523.79 644.145 1529.79 650.145C1535.79 656.145 1542.89 660.745 1551.09 663.945C1559.29 667.145 1568.29 668.745 1578.09 668.745C1588.49 668.745 1598.09 666.745 1606.89 662.745C1615.69 658.545 1623.69 652.245 1630.89 643.845L1662.09 672.645C1652.09 684.845 1639.69 694.145 1624.89 700.545C1610.29 706.945 1593.79 710.145 1575.39 710.145ZM1768.11 581.145H1869.21V618.945H1768.11V581.145ZM1771.71 667.545H1886.01V706.545H1723.41V496.545H1882.11V535.545H1771.71V667.545Z" fill="white"/>
</svg>
